<?xml version="1.0" standalone="no"?>
<!DOCTYPE svg PUBLIC "-//W3C//DTD SVG 20010904//EN"
 "http://www.w3.org/TR/2001/REC-SVG-20010904/DTD/svg10.dtd">
<svg version="1.0" xmlns="http://www.w3.org/2000/svg"
 viewBox="0 0 512.000000 512.000000"
 preserveAspectRatio="xMidYMid meet">

<g transform="translate(0.000000,512.000000) scale(0.100000,-0.100000)"
fill="#666666" stroke="none">
<path d="M2435 4844 c-11 -2 -51 -11 -88 -20 -327 -75 -620 -367 -742 -740
-51 -156 -60 -224 -59 -449 0 -179 3 -225 22 -313 106 -490 384 -911 709
-1075 125 -64 300 -85 428 -52 249 64 486 284 649 604 228 445 277 918 136
1316 -124 349 -380 607 -697 701 -70 21 -114 27 -213 30 -69 1 -134 1 -145 -2z"/>
<path d="M1435 2699 c-419 -245 -702 -649 -836 -1194 -56 -227 -72 -375 -73
-640 -1 -239 -1 -241 25 -290 21 -41 35 -55 84 -80 l59 -30 1865 0 1866 0 60
30 c47 24 65 40 85 75 24 44 25 50 25 245 0 216 -12 340 -51 535 -112 561
-365 989 -749 1265 -108 77 -208 132 -213 117 -10 -31 -80 -155 -128 -227
-113 -172 -260 -317 -435 -427 -114 -72 -221 -113 -346 -135 -175 -29 -379 8
-563 103 -220 114 -421 329 -557 596 l-49 97 -69 -40z"/>
</g>
</svg>
